<?xml version="1.0" standalone="no"?>
<!DOCTYPE svg PUBLIC "-//W3C//DTD SVG 20010904//EN"
 "http://www.w3.org/TR/2001/REC-SVG-20010904/DTD/svg10.dtd">
<svg version="1.0" xmlns="http://www.w3.org/2000/svg"
 width="256.000000pt" height="256.000000pt" viewBox="0 0 256.000000 256.000000"
 preserveAspectRatio="xMidYMid meet">

<g transform="translate(0.000000,256.000000) scale(0.100000,-0.100000)"
fill="#000000" stroke="none">
<path d="M0 1280 l0 -1280 1280 0 1280 0 0 1280 0 1280 -1280 0 -1280 0 0
-1280z m1180 891 c0 -25 -13 -38 -32 -33 -14 3 -19 1 -14 -6 4 -7 13 -12 21
-12 8 0 11 -7 8 -20 -4 -14 -14 -20 -35 -20 -17 0 -27 -4 -23 -10 3 -5 17 -10
30 -10 15 0 23 -5 21 -12 -3 -7 -7 -27 -10 -45 -5 -30 -3 -32 27 -35 24 -2 31
-7 29 -20 -2 -10 2 -18 8 -18 5 0 10 7 10 15 0 17 35 20 89 6 20 -5 77 -17
126 -26 50 -9 98 -19 107 -22 13 -3 24 8 40 41 21 43 33 51 67 46 12 -1 13 1
2 14 -20 23 -4 58 22 51 20 -6 20 -5 -3 14 -40 32 -14 37 31 5 87 -60 185
-201 221 -318 19 -63 20 -82 13 -205 -4 -75 -7 -147 -6 -161 5 -75 -2 -144
-20 -215 -11 -44 -24 -97 -30 -119 -18 -70 -2 -49 32 43 18 50 35 89 37 87 2
-2 -14 -52 -34 -110 -24 -68 -42 -105 -50 -102 -16 6 -30 -12 -88 -109 -77
-131 -153 -201 -251 -235 -217 -74 -412 -88 -515 -34 -21 11 -23 13 -8 19 9 4
14 13 11 21 -3 8 -1 14 4 14 13 0 14 43 0 60 -7 8 -25 21 -40 28 -17 7 -25 17
-21 24 5 7 2 9 -8 5 -9 -3 -25 3 -36 13 -10 10 -30 19 -43 20 -35 3 -70 -10
-62 -24 3 -6 -5 -1 -19 12 -27 25 -65 98 -56 108 4 3 21 1 40 -4 37 -10 126 8
166 34 12 8 27 12 32 9 6 -3 10 -2 10 4 0 6 10 19 22 31 12 11 19 20 15 20 -4
0 2 19 14 43 12 23 22 62 23 87 0 25 4 48 8 51 31 22 33 270 3 329 -48 93
-144 145 -223 120 -83 -27 -164 -142 -185 -264 -12 -73 1 -183 28 -237 9 -16
12 -29 8 -29 -20 1 -35 21 -48 63 -17 57 -29 336 -18 432 8 68 9 70 37 73 46
6 56 22 69 112 2 8 6 20 10 27 9 14 -9 63 -23 63 -33 0 24 60 180 191 83 69
129 94 208 113 72 18 72 18 72 7z m-356 -703 c-39 -124 -30 -220 31 -308 29
-41 69 -63 118 -63 l30 0 -28 -23 c-35 -28 -106 -47 -143 -38 -41 10 -82 33
-82 46 0 6 -7 19 -15 28 -8 9 -20 48 -27 88 -11 67 -10 77 11 143 14 45 36 85
58 110 40 44 58 50 47 17z m251 -83 c3 -27 2 -81 -3 -120 l-9 -70 -2 117 c0
64 -4 125 -7 135 -5 15 -4 15 5 3 5 -8 13 -37 16 -65z m-660 -126 c2 -57 7
-128 11 -158 8 -65 -8 -63 -38 6 -22 50 -26 182 -7 240 18 56 30 25 34 -88z
m1552 19 c-2 -18 -4 -4 -4 32 0 36 2 50 4 33 2 -18 2 -48 0 -65z m30 5 c-2
-16 -4 -3 -4 27 0 30 2 43 4 28 2 -16 2 -40 0 -55z m30 -125 c-25 -115 -43
-172 -57 -176 -9 -3 -11 1 -5 14 17 40 55 198 55 227 0 23 3 28 12 19 8 -8 7
-29 -5 -84z m-70 50 c-3 -7 -5 -2 -5 12 0 14 2 19 5 13 2 -7 2 -19 0 -25z m30
-10 c-3 -7 -5 -2 -5 12 0 14 2 19 5 13 2 -7 2 -19 0 -25z m-35 -125 c-17 -45
-35 -89 -42 -99 -11 -18 -11 -18 -4 1 4 11 21 61 38 110 17 50 32 85 34 79 2
-6 -10 -47 -26 -91z m-908 32 c-6 -16 -24 -21 -24 -7 0 11 11 22 21 22 5 0 6
-7 3 -15z m189 -609 c82 1 103 -5 75 -23 -21 -12 -40 -16 -98 -17 -30 0 -58
-5 -61 -9 -8 -11 -60 10 -75 31 -22 29 -16 34 29 25 23 -4 81 -8 130 -7z
m-203 -16 c0 -5 -7 -7 -15 -4 -8 4 -15 8 -15 10 0 2 7 4 15 4 8 0 15 -4 15
-10z m202 -87 c75 2 88 -3 70 -29 -10 -16 -47 -34 -69 -34 -22 0 -138 54 -147
68 -4 6 7 7 31 2 20 -5 71 -8 115 -7z"/>
<path d="M1605 1920 c3 -5 14 -10 23 -10 15 0 15 2 2 10 -20 13 -33 13 -25 0z"/>
<path d="M1360 1910 c0 -5 5 -10 10 -10 6 0 10 5 10 10 0 6 -4 10 -10 10 -5 0
-10 -4 -10 -10z"/>
<path d="M1480 1869 c0 -5 5 -7 10 -4 6 3 10 8 10 11 0 2 -4 4 -10 4 -5 0 -10
-5 -10 -11z"/>
<path d="M1015 1795 c-18 -17 -25 -35 -25 -63 0 -45 23 -73 42 -54 7 7 20 12
31 12 12 0 23 11 30 30 14 37 24 38 30 3 3 -20 4 -16 6 14 1 35 -3 45 -28 62
-38 27 -57 26 -86 -4z"/>
<path d="M1304 1763 c-14 -15 -22 -33 -19 -41 3 -7 5 -19 6 -25 0 -7 4 -2 9
11 11 27 34 30 27 3 -3 -15 1 -18 19 -17 19 1 24 7 24 30 0 21 -4 27 -15 22
-8 -3 -15 -1 -15 4 0 14 34 12 48 -2 9 -9 12 -9 12 -1 0 14 -39 43 -58 43 -7
0 -24 -12 -38 -27z"/>
<path d="M1150 1204 c-16 -53 -10 -129 10 -129 24 -1 28 13 23 84 -7 81 -18
96 -33 45z"/>
<path d="M1337 814 c-8 -8 -129 -35 -135 -30 -2 3 11 10 29 15 33 11 33 11 -9
6 -66 -8 -114 -31 -110 -52 9 -50 258 -4 258 47 0 10 -26 21 -33 14z"/>
</g>
</svg>
